<svg viewBox="0 0 400 400" xmlns="http://www.w3.org/2000/svg">
  <defs>
    <linearGradient id="grad" x1="0%" y1="0%" x2="100%" y2="100%">
      <stop offset="0%" style="stop-color:#1e4d5f;stop-opacity:1" />
      <stop offset="50%" style="stop-color:#6b94a0;stop-opacity:1" />
      <stop offset="100%" style="stop-color:#b8c9b4;stop-opacity:1" />
    </linearGradient>
  </defs>
  
  <g transform="translate(200, 200)">
    <!-- C plus arrondi et plus épais -->
    <path d="M 70 -40 L 70 -60 Q 70 -100, 30 -100 L -30 -100 Q -80 -100, -80 -50 L -80 50 Q -80 100, -30 100 L 30 100 Q 70 100, 70 60 L 70 40 L 40 40 L 40 60 Q 40 70, 30 70 L -30 70 Q -50 70, -50 50 L -50 -50 Q -50 -70, -30 -70 L 30 -70 Q 40 -70, 40 -60 L 40 -40 Z" 
          fill="url(#grad)"/>
    
    <!-- Plume sortant du C -->
    <g transform="translate(75, 0)">
      <path d="M 0 0 Q 15 -20, 18 -45 L 20 -55" 
            fill="none" 
            stroke="#b8c9b4" 
            stroke-width="3.5"
            stroke-linecap="round"/>
      
      <path d="M 5 -12 L 12 -15" 
            fill="none" 
            stroke="#b8c9b4" 
            stroke-width="2"
            stroke-linecap="round"/>
      <path d="M 8 -25 L 15 -28" 
            fill="none" 
            stroke="#b8c9b4" 
            stroke-width="2"
            stroke-linecap="round"/>
      <path d="M 10 -38 L 17 -42" 
            fill="none" 
            stroke="#b8c9b4" 
            stroke-width="2"
            stroke-linecap="round"/>
    </g>
  </g>
</svg>